<?xml version="1.0" encoding="UTF-8" standalone="no"?>
<!DOCTYPE svg PUBLIC "-//W3C//DTD SVG 1.1//EN"
 "http://www.w3.org/Graphics/SVG/1.1/DTD/svg11.dtd">
<!-- Generated by graphviz version 2.38.0 (20140413.2041)
 -->
<!-- Title: simple_hierarchy Pages: 1 -->
<svg width="1162pt" height="570pt"
 viewBox="0.00 0.00 1162.15 570.00" xmlns="http://www.w3.org/2000/svg" xmlns:xlink="http://www.w3.org/1999/xlink">
<g id="graph0" class="graph" transform="scale(1 1) rotate(0) translate(4 566)">
<title>simple_hierarchy</title>
<polygon fill="white" stroke="none" points="-4,4 -4,-566 1158.15,-566 1158.15,4 -4,4"/>
<g id="clust1" class="cluster"><title>cluster_clojure</title>
<polygon fill="none" stroke="blue" points="8,-8 8,-554 1146.15,-554 1146.15,-8 8,-8"/>
<text text-anchor="middle" x="577.076" y="-538.8" font-family="Times,serif" font-size="14.00">clojure</text>
</g>
<!-- algopop_leaderboardx_routes -->
<g id="node1" class="node"><title>algopop_leaderboardx_routes</title>
<ellipse fill="none" stroke="black" cx="376.504" cy="-304" rx="110.576" ry="18"/>
<text text-anchor="middle" x="376.504" y="-299.8" font-family="Times,serif" font-size="14.00">algopop.leaderboardx.routes</text>
</g>
<!-- ring_middleware_defaults -->
<g id="node2" class="node"><title>ring_middleware_defaults</title>
<ellipse fill="none" stroke="black" cx="667.48" cy="-250" rx="98.5225" ry="18"/>
<text text-anchor="middle" x="667.48" y="-245.8" font-family="Times,serif" font-size="14.00">ring.middleware.defaults</text>
</g>
<!-- algopop_leaderboardx_routes&#45;&gt;ring_middleware_defaults -->
<g id="edge1" class="edge"><title>algopop_leaderboardx_routes&#45;&gt;ring_middleware_defaults</title>
<path fill="none" stroke="black" d="M450.052,-290.443C492.085,-282.589 545.025,-272.696 588.024,-264.661"/>
<polygon fill="black" stroke="black" points="588.694,-268.096 597.881,-262.819 587.408,-261.215 588.694,-268.096"/>
</g>
<!-- algopop_leaderboardx_pages -->
<g id="node3" class="node"><title>algopop_leaderboardx_pages</title>
<ellipse fill="none" stroke="black" cx="667.48" cy="-358" rx="109.122" ry="18"/>
<text text-anchor="middle" x="667.48" y="-353.8" font-family="Times,serif" font-size="14.00">algopop.leaderboardx.pages</text>
</g>
<!-- algopop_leaderboardx_routes&#45;&gt;algopop_leaderboardx_pages -->
<g id="edge16" class="edge"><title>algopop_leaderboardx_routes&#45;&gt;algopop_leaderboardx_pages</title>
<path fill="none" stroke="black" d="M450.052,-317.557C490.913,-325.192 542.081,-334.754 584.404,-342.663"/>
<polygon fill="black" stroke="black" points="583.93,-346.135 594.403,-344.531 585.216,-339.254 583.93,-346.135"/>
</g>
<!-- environ_core -->
<g id="node5" class="node"><title>environ_core</title>
<ellipse fill="none" stroke="black" cx="667.48" cy="-142" rx="54.5974" ry="18"/>
<text text-anchor="middle" x="667.48" y="-137.8" font-family="Times,serif" font-size="14.00">environ.core</text>
</g>
<!-- algopop_leaderboardx_routes&#45;&gt;environ_core -->
<g id="edge3" class="edge"><title>algopop_leaderboardx_routes&#45;&gt;environ_core</title>
<path fill="none" stroke="black" d="M391.391,-285.714C414.995,-256.053 465.991,-197.868 523.292,-169 547.923,-156.591 577.545,-149.854 603.44,-146.209"/>
<polygon fill="black" stroke="black" points="604.061,-149.658 613.535,-144.915 603.171,-142.715 604.061,-149.658"/>
</g>
<!-- algopop_leaderboardx_communication -->
<g id="node6" class="node"><title>algopop_leaderboardx_communication</title>
<ellipse fill="none" stroke="black" cx="667.48" cy="-506" rx="144.376" ry="18"/>
<text text-anchor="middle" x="667.48" y="-501.8" font-family="Times,serif" font-size="14.00">algopop.leaderboardx.communication</text>
</g>
<!-- algopop_leaderboardx_routes&#45;&gt;algopop_leaderboardx_communication -->
<g id="edge4" class="edge"><title>algopop_leaderboardx_routes&#45;&gt;algopop_leaderboardx_communication</title>
<path fill="none" stroke="black" d="M389.769,-322.083C412.449,-354.193 464.069,-421.325 523.292,-459 542.244,-471.057 564.588,-480.313 585.918,-487.29"/>
<polygon fill="black" stroke="black" points="585.042,-490.684 595.631,-490.338 587.137,-484.005 585.042,-490.684"/>
</g>
<!-- compojure_route -->
<g id="node7" class="node"><title>compojure_route</title>
<ellipse fill="none" stroke="black" cx="667.48" cy="-304" rx="68.1129" ry="18"/>
<text text-anchor="middle" x="667.48" y="-299.8" font-family="Times,serif" font-size="14.00">compojure.route</text>
</g>
<!-- algopop_leaderboardx_routes&#45;&gt;compojure_route -->
<g id="edge5" class="edge"><title>algopop_leaderboardx_routes&#45;&gt;compojure_route</title>
<path fill="none" stroke="black" d="M487.578,-304C521.253,-304 557.577,-304 588.639,-304"/>
<polygon fill="black" stroke="black" points="588.96,-307.5 598.96,-304 588.96,-300.5 588.96,-307.5"/>
</g>
<!-- clojure_tools_logging -->
<g id="node8" class="node"><title>clojure_tools_logging</title>
<ellipse fill="none" stroke="black" cx="992.909" cy="-344" rx="83.1063" ry="18"/>
<text text-anchor="middle" x="992.909" y="-339.8" font-family="Times,serif" font-size="14.00">clojure.tools.logging</text>
</g>
<!-- algopop_leaderboardx_routes&#45;&gt;clojure_tools_logging -->
<g id="edge19" class="edge"><title>algopop_leaderboardx_routes&#45;&gt;clojure_tools_logging</title>
<path fill="none" stroke="black" d="M400.649,-321.808C428.133,-341.727 476.203,-372.797 523.292,-385 585.326,-401.076 748.683,-396.816 811.668,-385 828.541,-381.835 831.159,-375.711 847.668,-371 868.817,-364.965 892.105,-359.93 913.685,-355.906"/>
<polygon fill="black" stroke="black" points="914.58,-359.301 923.794,-354.071 913.329,-352.414 914.58,-359.301"/>
</g>
<!-- algopop_leaderboardx_services -->
<g id="node9" class="node"><title>algopop_leaderboardx_services</title>
<ellipse fill="none" stroke="black" cx="667.48" cy="-196" rx="117.816" ry="18"/>
<text text-anchor="middle" x="667.48" y="-191.8" font-family="Times,serif" font-size="14.00">algopop.leaderboardx.services</text>
</g>
<!-- algopop_leaderboardx_routes&#45;&gt;algopop_leaderboardx_services -->
<g id="edge7" class="edge"><title>algopop_leaderboardx_routes&#45;&gt;algopop_leaderboardx_services</title>
<path fill="none" stroke="black" d="M403.153,-286.388C431.361,-267.841 478.632,-239.138 523.292,-223 537.734,-217.781 553.378,-213.519 568.842,-210.054"/>
<polygon fill="black" stroke="black" points="569.916,-213.403 578.963,-207.89 568.452,-206.558 569.916,-213.403"/>
</g>
<!-- ring_middleware_reload -->
<g id="node12" class="node"><title>ring_middleware_reload</title>
<ellipse fill="none" stroke="black" cx="667.48" cy="-432" rx="92.7256" ry="18"/>
<text text-anchor="middle" x="667.48" y="-427.8" font-family="Times,serif" font-size="14.00">ring.middleware.reload</text>
</g>
<!-- algopop_leaderboardx_routes&#45;&gt;ring_middleware_reload -->
<g id="edge11" class="edge"><title>algopop_leaderboardx_routes&#45;&gt;ring_middleware_reload</title>
<path fill="none" stroke="black" d="M398.792,-321.652C425.989,-343.309 475.304,-379.649 523.292,-400 542.235,-408.034 563.481,-414.184 583.69,-418.839"/>
<polygon fill="black" stroke="black" points="582.994,-422.269 593.513,-421.006 584.502,-415.434 582.994,-422.269"/>
</g>
<!-- prone_middleware -->
<g id="node13" class="node"><title>prone_middleware</title>
<ellipse fill="none" stroke="black" cx="667.48" cy="-34" rx="74.3926" ry="18"/>
<text text-anchor="middle" x="667.48" y="-29.8" font-family="Times,serif" font-size="14.00">prone.middleware</text>
</g>
<!-- algopop_leaderboardx_routes&#45;&gt;prone_middleware -->
<g id="edge12" class="edge"><title>algopop_leaderboardx_routes&#45;&gt;prone_middleware</title>
<path fill="none" stroke="black" d="M382.703,-285.773C396.831,-239.791 440.533,-118.644 523.292,-61 540.853,-48.7678 562.445,-41.6717 583.486,-37.6529"/>
<polygon fill="black" stroke="black" points="584.15,-41.0904 593.424,-35.9669 582.979,-34.1891 584.15,-41.0904"/>
</g>
<!-- compojure_core -->
<g id="node18" class="node"><title>compojure_core</title>
<ellipse fill="none" stroke="black" cx="667.48" cy="-88" rx="65.2055" ry="18"/>
<text text-anchor="middle" x="667.48" y="-83.8" font-family="Times,serif" font-size="14.00">compojure.core</text>
</g>
<!-- algopop_leaderboardx_routes&#45;&gt;compojure_core -->
<g id="edge20" class="edge"><title>algopop_leaderboardx_routes&#45;&gt;compojure_core</title>
<path fill="none" stroke="black" d="M385.792,-285.897C404.385,-247.496 453.344,-157.892 523.292,-115 543.86,-102.388 568.977,-95.4254 592.398,-91.6538"/>
<polygon fill="black" stroke="black" points="592.915,-95.1156 602.314,-90.2256 591.917,-88.1871 592.915,-95.1156"/>
</g>
<!-- hiccup_page -->
<g id="node4" class="node"><title>hiccup_page</title>
<ellipse fill="none" stroke="black" cx="992.909" cy="-290" rx="52.668" ry="18"/>
<text text-anchor="middle" x="992.909" y="-285.8" font-family="Times,serif" font-size="14.00">hiccup.page</text>
</g>
<!-- algopop_leaderboardx_pages&#45;&gt;hiccup_page -->
<g id="edge2" class="edge"><title>algopop_leaderboardx_pages&#45;&gt;hiccup_page</title>
<path fill="none" stroke="black" d="M747.868,-345.728C768.798,-341.761 791.238,-336.845 811.668,-331 828.173,-326.278 831.159,-321.711 847.668,-317 875.691,-309.003 907.47,-302.762 934.052,-298.304"/>
<polygon fill="black" stroke="black" points="934.663,-301.751 943.968,-296.683 933.534,-294.843 934.663,-301.751"/>
</g>
<!-- algopop_leaderboardx_communication&#45;&gt;clojure_tools_logging -->
<g id="edge6" class="edge"><title>algopop_leaderboardx_communication&#45;&gt;clojure_tools_logging</title>
<path fill="none" stroke="black" d="M777.494,-494.199C789.99,-489.354 801.773,-482.806 811.668,-474 847.894,-441.762 810.886,-402.602 847.668,-371 862.231,-358.488 880.72,-351.002 899.562,-346.669"/>
<polygon fill="black" stroke="black" points="900.317,-350.087 909.428,-344.68 898.934,-343.225 900.317,-350.087"/>
</g>
<!-- taoensso_sente_server_adapters_http_kit -->
<g id="node10" class="node"><title>taoensso_sente_server_adapters_http_kit</title>
<ellipse fill="none" stroke="black" cx="992.909" cy="-398" rx="145.484" ry="18"/>
<text text-anchor="middle" x="992.909" y="-393.8" font-family="Times,serif" font-size="14.00">taoensso.sente.server&#45;adapters.http&#45;kit</text>
</g>
<!-- algopop_leaderboardx_communication&#45;&gt;taoensso_sente_server_adapters_http_kit -->
<g id="edge8" class="edge"><title>algopop_leaderboardx_communication&#45;&gt;taoensso_sente_server_adapters_http_kit</title>
<path fill="none" stroke="black" d="M769.255,-493.145C784.208,-488.554 798.871,-482.357 811.668,-474 834.294,-459.224 824.788,-439.38 847.668,-425 855.19,-420.272 863.34,-416.331 871.807,-413.051"/>
<polygon fill="black" stroke="black" points="873.228,-416.261 881.485,-409.621 870.89,-409.663 873.228,-416.261"/>
</g>
<!-- timothypratley_patchin -->
<g id="node14" class="node"><title>timothypratley_patchin</title>
<ellipse fill="none" stroke="black" cx="992.909" cy="-452" rx="89.6813" ry="18"/>
<text text-anchor="middle" x="992.909" y="-447.8" font-family="Times,serif" font-size="14.00">timothypratley.patchin</text>
</g>
<!-- algopop_leaderboardx_communication&#45;&gt;timothypratley_patchin -->
<g id="edge13" class="edge"><title>algopop_leaderboardx_communication&#45;&gt;timothypratley_patchin</title>
<path fill="none" stroke="black" d="M754.728,-491.6C803.995,-483.374 865.308,-473.138 913.252,-465.133"/>
<polygon fill="black" stroke="black" points="913.983,-468.559 923.27,-463.46 912.83,-461.655 913.983,-468.559"/>
</g>
<!-- taoensso_sente -->
<g id="node15" class="node"><title>taoensso_sente</title>
<ellipse fill="none" stroke="black" cx="992.909" cy="-506" rx="60.8876" ry="18"/>
<text text-anchor="middle" x="992.909" y="-501.8" font-family="Times,serif" font-size="14.00">taoensso.sente</text>
</g>
<!-- algopop_leaderboardx_communication&#45;&gt;taoensso_sente -->
<g id="edge14" class="edge"><title>algopop_leaderboardx_communication&#45;&gt;taoensso_sente</title>
<path fill="none" stroke="black" d="M811.753,-506C849.87,-506 889.371,-506 921.638,-506"/>
<polygon fill="black" stroke="black" points="921.849,-509.5 931.849,-506 921.849,-502.5 921.849,-509.5"/>
</g>
<!-- algopop_leaderboardx_store -->
<g id="node16" class="node"><title>algopop_leaderboardx_store</title>
<ellipse fill="none" stroke="black" cx="992.909" cy="-196" rx="106.232" ry="18"/>
<text text-anchor="middle" x="992.909" y="-191.8" font-family="Times,serif" font-size="14.00">algopop.leaderboardx.store</text>
</g>
<!-- algopop_leaderboardx_services&#45;&gt;algopop_leaderboardx_store -->
<g id="edge15" class="edge"><title>algopop_leaderboardx_services&#45;&gt;algopop_leaderboardx_store</title>
<path fill="none" stroke="black" d="M785.245,-196C814.784,-196 846.497,-196 875.994,-196"/>
<polygon fill="black" stroke="black" points="876.328,-199.5 886.328,-196 876.328,-192.5 876.328,-199.5"/>
</g>
<!-- algopop_leaderboardx_main -->
<g id="node11" class="node"><title>algopop_leaderboardx_main</title>
<ellipse fill="none" stroke="black" cx="122.858" cy="-459" rx="106.716" ry="18"/>
<text text-anchor="middle" x="122.858" y="-454.8" font-family="Times,serif" font-size="14.00">algopop.leaderboardx.main</text>
</g>
<!-- algopop_leaderboardx_main&#45;&gt;algopop_leaderboardx_routes -->
<g id="edge9" class="edge"><title>algopop_leaderboardx_main&#45;&gt;algopop_leaderboardx_routes</title>
<path fill="none" stroke="black" d="M152.236,-441.521C197.95,-413.363 287.883,-357.97 338.547,-326.764"/>
<polygon fill="black" stroke="black" points="340.551,-329.64 347.23,-321.415 336.88,-323.68 340.551,-329.64"/>
</g>
<!-- algopop_leaderboardx_main&#45;&gt;algopop_leaderboardx_communication -->
<g id="edge10" class="edge"><title>algopop_leaderboardx_main&#45;&gt;algopop_leaderboardx_communication</title>
<path fill="none" stroke="black" d="M228.241,-462.126C300.994,-464.944 400.228,-470.065 487.292,-479 514.626,-481.805 544.166,-485.839 571.226,-489.937"/>
<polygon fill="black" stroke="black" points="571.05,-493.451 581.466,-491.508 572.112,-486.532 571.05,-493.451"/>
</g>
<!-- algopop_leaderboardx_main&#45;&gt;clojure_tools_logging -->
<g id="edge18" class="edge"><title>algopop_leaderboardx_main&#45;&gt;clojure_tools_logging</title>
<path fill="none" stroke="black" d="M229.821,-459C422.757,-459 811.668,-459 811.668,-459 846.752,-435.446 814.91,-397.694 847.668,-371 862.468,-358.939 880.963,-351.626 899.721,-347.314"/>
<polygon fill="black" stroke="black" points="900.432,-350.742 909.537,-345.324 899.041,-343.881 900.432,-350.742"/>
</g>
<!-- org_httpkit_server -->
<g id="node17" class="node"><title>org_httpkit_server</title>
<ellipse fill="none" stroke="black" cx="376.504" cy="-506" rx="70.7166" ry="18"/>
<text text-anchor="middle" x="376.504" y="-501.8" font-family="Times,serif" font-size="14.00">org.httpkit.server</text>
</g>
<!-- algopop_leaderboardx_main&#45;&gt;org_httpkit_server -->
<g id="edge17" class="edge"><title>algopop_leaderboardx_main&#45;&gt;org_httpkit_server</title>
<path fill="none" stroke="black" d="M195.297,-472.343C230.873,-478.987 273.631,-486.973 308.569,-493.498"/>
<polygon fill="black" stroke="black" points="308.199,-496.99 318.672,-495.385 309.484,-490.109 308.199,-496.99"/>
</g>
</g>
</svg>
